<svg width="2006" height="595" viewBox="0 0 2006 595" fill="none" xmlns="http://www.w3.org/2000/svg">
<g clip-path="url(#clip0_869_19)">
<path d="M818.739 180.11H777.034V136H818.739V180.11ZM706.659 349.414C706.659 367.145 712.958 382.496 725.556 395.471C738.589 408.011 754.228 414.283 772.473 414.283H818.739V458.392H772.473C742.064 458.392 716.216 447.797 694.93 426.607C673.643 404.985 663 379.253 663 349.414V136.649H706.659V349.414Z" fill="black"/>
<path d="M955.436 182.056H935.236V335.144H955.436L954.786 378.606H870.725L871.377 334.494H890.926V182.056H871.377V137.946L955.436 138.595V182.056ZM955.436 414.283L954.786 458.392L870.725 457.744L871.377 414.283H955.436Z" fill="black"/>
<path d="M1147.65 458.392H1044.7V414.283H1147.65V458.392ZM1210.86 136.649H1255.17V458.392H1210.86V350.712C1188.7 369.308 1163.07 378.606 1133.97 378.606C1100.08 378.606 1071.19 366.713 1047.3 342.927C1023.84 319.143 1012.11 290.601 1012.11 257.302C1012.11 224.004 1023.84 195.678 1047.3 172.326C1071.19 148.541 1100.08 136.649 1133.97 136.649C1163.07 136.649 1188.7 145.946 1210.86 164.542V136.649ZM1078.58 312.44C1093.78 327.143 1112.03 334.494 1133.32 334.494C1155.04 334.494 1173.28 327.143 1188.05 312.44C1203.26 297.304 1210.86 279.141 1210.86 257.951C1210.86 236.329 1203.26 218.166 1188.05 203.462C1173.28 188.327 1155.04 180.759 1133.32 180.759C1112.03 180.759 1093.78 188.327 1078.58 203.462C1063.81 218.166 1056.42 236.329 1056.42 257.951C1056.42 279.141 1063.81 297.304 1078.58 312.44Z" fill="black"/>
<path d="M1415.67 181.407H1298.38V137.946L1415.67 137.297V181.407ZM1484.75 217.085H1529.06V458.392H1443.69C1415.46 458.392 1391.35 448.662 1371.36 429.202C1351.38 409.309 1341.39 385.307 1341.39 357.199V260.546H1298.38V217.085H1385.7V357.199C1385.7 367.578 1388.31 377.308 1393.52 386.389C1398.73 395.039 1405.68 401.958 1414.37 407.146C1423.49 412.336 1433.27 414.931 1443.69 414.931H1484.75V217.085Z" fill="black"/>
<path d="M1677.06 182.056H1656.86V335.144H1677.06L1676.41 378.606H1592.35L1593 334.494H1612.55V182.056H1593V137.946L1677.06 138.595V182.056ZM1677.06 414.283L1676.41 458.392L1592.35 457.744L1593 414.283H1677.06Z" fill="black"/>
<path d="M1939 458.392H1852.33C1819.32 458.392 1791.08 446.715 1767.62 423.363C1744.16 400.011 1732.43 371.903 1732.43 339.036C1732.43 306.17 1744.16 278.06 1767.62 254.708C1791.08 231.355 1819.32 219.679 1852.33 219.679H1894.69V137.297H1939V458.392ZM1852.33 414.283H1894.69V263.141H1852.33C1831.48 263.141 1813.45 270.708 1798.25 285.844C1783.48 300.548 1776.09 318.277 1776.09 339.036C1776.09 359.794 1783.48 377.524 1798.25 392.228C1813.45 406.93 1831.48 414.283 1852.33 414.283ZM1861.46 180.759L1777.4 181.407V137.297H1861.46V180.759Z" fill="black"/>
</g>
<mask id="path-7-inside-1_869_19" fill="white">
<path d="M199.281 106.362C199.275 106.372 199.277 106.368 199.271 106.378C199.074 106.695 158.841 171.313 134.25 212.753C177.595 314.226 207.714 363.51 292.063 411.326C265.827 396.567 249.046 133.248 260.5 0L199.281 106.362Z"/>
<path d="M323.625 106.377L260.5 0C249.046 133.248 265.827 396.567 292.063 411.326C355.473 337.988 371.009 293.678 386.75 212.753L323.625 106.377Z"/>
<path d="M71.125 319.13L8 425.507C144.076 441.127 181.437 449.755 292.063 411.326C207.714 363.51 177.595 314.226 134.25 212.753L71.125 319.13Z"/>
<path d="M8 425.507L260.5 595C260.5 595 292.063 478.587 292.063 411.326C181.437 449.755 144.076 441.127 8 425.507Z"/>
<path d="M260.5 595L513 425.507C437.688 376.385 364.102 384.273 292.063 411.326C292.063 478.587 260.5 595 260.5 595Z"/>
<path d="M449.875 319.13L386.75 212.753C371.009 293.678 355.473 337.988 292.063 411.326C364.102 384.273 437.688 376.385 513 425.507L449.875 319.13Z"/>
</mask>
<path d="M260.5 0L272.97 -7.39969L249.921 -46.24L246.053 -1.24189L260.5 0ZM134.25 212.753L147.584 207.057L136.361 180.783L121.78 205.354L134.25 212.753ZM71.125 319.13C83.5948 326.53 83.5949 326.529 83.5952 326.529C83.5955 326.528 83.5959 326.528 83.5965 326.527C83.598 326.524 83.5991 326.522 83.6018 326.518C83.6065 326.51 83.6133 326.498 83.6227 326.482C83.6414 326.451 83.6691 326.404 83.7059 326.342C83.7795 326.218 83.8889 326.034 84.0328 325.791C84.3207 325.306 84.746 324.59 85.296 323.663C86.3962 321.809 87.9953 319.114 89.9914 315.75C93.9834 309.023 99.5629 299.62 105.913 288.92C118.613 267.518 134.394 240.924 146.72 220.153L121.78 205.354C109.454 226.125 93.6731 252.719 80.9733 274.12C74.6234 284.821 69.0439 294.224 65.0519 300.951C63.0558 304.314 61.4567 307.009 60.3565 308.863C59.8065 309.79 59.3811 310.507 59.0933 310.992C58.9495 311.234 58.8399 311.419 58.7664 311.543C58.7297 311.605 58.7017 311.652 58.6832 311.683C58.674 311.699 58.6669 311.711 58.6623 311.718C58.6595 311.723 58.6586 311.725 58.657 311.727C58.6564 311.728 58.656 311.729 58.6557 311.729C58.6554 311.73 58.6553 311.73 71.125 319.13ZM374.28 220.153C386.606 240.924 402.387 267.518 415.087 288.92C421.437 299.62 427.017 309.023 431.009 315.75C433.005 319.114 434.604 321.809 435.704 323.663C436.254 324.59 436.679 325.306 436.967 325.791C437.111 326.034 437.221 326.218 437.294 326.342C437.331 326.404 437.359 326.451 437.377 326.482C437.387 326.498 437.394 326.51 437.398 326.518C437.401 326.522 437.402 326.525 437.403 326.527C437.404 326.528 437.405 326.528 437.405 326.529C437.405 326.529 437.405 326.53 449.875 319.13C462.345 311.73 462.345 311.73 462.344 311.729C462.344 311.729 462.344 311.728 462.343 311.727C462.342 311.725 462.34 311.722 462.338 311.718C462.333 311.71 462.326 311.699 462.317 311.683C462.298 311.652 462.27 311.605 462.234 311.543C462.16 311.419 462.051 311.234 461.907 310.992C461.619 310.507 461.194 309.79 460.643 308.863C459.543 307.009 457.944 304.314 455.948 300.951C451.956 294.224 446.377 284.821 440.027 274.12C427.327 252.719 411.546 226.125 399.22 205.354L374.28 220.153ZM260.5 0C248.03 7.39969 248.03 7.39994 248.031 7.40043C248.031 7.40092 248.031 7.40166 248.032 7.40265C248.033 7.40461 248.035 7.4076 248.037 7.41152C248.042 7.4194 248.049 7.43117 248.058 7.44684C248.077 7.47817 248.105 7.52497 248.141 7.58694C248.215 7.71089 248.324 7.89544 248.468 8.13795C248.756 8.62295 249.181 9.33969 249.732 10.2667C250.832 12.1206 252.431 14.8155 254.427 18.1791C258.419 24.9064 263.998 34.3088 270.348 45.0095C283.048 66.4108 298.829 93.005 311.155 113.776L336.095 98.977C323.769 78.2056 307.988 51.6115 295.288 30.2101C288.938 19.5095 283.358 10.107 279.366 3.37972C277.37 0.0160783 275.771 -2.67877 274.671 -4.53272C274.121 -5.45968 273.696 -6.17644 273.408 -6.66143C273.264 -6.90393 273.154 -7.08849 273.081 -7.21243C273.044 -7.27438 273.016 -7.32124 272.998 -7.35254C272.988 -7.36817 272.981 -7.38002 272.977 -7.38786C272.974 -7.39178 272.973 -7.39477 272.972 -7.39673C272.971 -7.39771 272.97 -7.39845 272.97 -7.39895C272.97 -7.39944 272.97 -7.39969 260.5 0ZM311.155 113.776C323.481 134.548 333.099 150.756 342.718 166.965C352.336 183.173 361.954 199.382 374.28 220.153L399.22 205.354C386.894 184.582 377.276 168.374 367.657 152.165C358.039 135.957 348.421 119.748 336.095 98.977L311.155 113.776ZM6.34637 439.912C73.6936 447.643 118.412 453.898 159.826 453.183C202.019 452.454 240.593 444.555 296.821 425.023L287.304 397.629C232.906 416.526 197.487 423.528 159.325 424.187C120.383 424.86 78.3828 418.991 9.65363 411.101L6.34637 439.912ZM277.563 411.326C277.563 443.319 269.97 487.95 262.092 525.401C258.19 543.951 254.285 560.435 251.356 572.278C249.892 578.197 248.674 582.949 247.824 586.213C247.399 587.844 247.067 589.103 246.842 589.949C246.729 590.372 246.644 590.691 246.587 590.902C246.559 591.008 246.537 591.086 246.524 591.137C246.517 591.163 246.512 591.181 246.509 591.192C246.507 591.198 246.506 591.202 246.506 591.204C246.505 591.205 246.505 591.206 246.505 591.206C246.505 591.206 246.505 591.206 260.5 595C274.495 598.794 274.495 598.793 274.496 598.791C274.496 598.79 274.497 598.787 274.497 598.785C274.499 598.78 274.5 598.773 274.503 598.765C274.507 598.748 274.514 598.724 274.522 598.694C274.539 598.632 274.563 598.542 274.594 598.426C274.657 598.192 274.748 597.85 274.867 597.404C275.105 596.511 275.45 595.203 275.888 593.52C276.765 590.154 278.012 585.287 279.508 579.241C282.496 567.155 286.482 550.331 290.471 531.371C298.374 493.8 306.563 446.594 306.563 411.326H277.563ZM120.916 218.449C142.64 269.306 161.58 308.417 186.225 340.922C211.126 373.763 241.369 399.256 284.912 423.94L299.213 398.712C258.407 375.58 231.416 352.523 209.334 323.4C186.997 293.94 169.205 257.673 147.584 207.057L120.916 218.449ZM372.517 209.985C364.705 250.144 357.14 280.11 344.079 308.893C331.054 337.592 312.227 365.835 281.094 401.842L303.031 420.81C335.308 383.479 355.955 352.898 370.486 320.877C384.981 288.938 393.054 256.287 400.983 215.522L372.517 209.985ZM297.16 424.9C366.817 398.742 435.088 392.001 505.078 437.651L520.922 413.362C440.289 360.769 361.386 369.804 286.965 397.752L297.16 424.9ZM299.172 398.689C301.011 399.723 301.02 400.625 299.893 398.622C298.961 396.969 297.783 394.277 296.465 390.309C293.841 382.41 291.223 371.184 288.732 357.051C283.77 328.898 279.615 290.985 276.61 249.06C270.598 165.155 269.308 66.8358 274.947 1.24189L246.053 -1.24189C240.237 66.412 241.611 166.376 247.685 251.133C250.723 293.538 254.967 332.55 260.172 362.085C262.765 376.795 265.672 389.604 268.943 399.451C270.573 404.355 272.434 408.964 274.625 412.854C276.62 416.396 279.835 421.084 284.953 423.964L299.172 398.689ZM260.5 0L285.439 -14.7994L260.118 -57.4704L235.366 -14.4666L260.5 0ZM513 425.507L529.163 449.585L551.938 434.297L537.94 410.707L513 425.507ZM8 425.507L-16.9395 410.707L-30.9378 434.297L-8.16281 449.585L8 425.507ZM260.5 595L244.337 619.078L260.5 629.928L276.663 619.078L260.5 595ZM134.25 212.753L109.31 197.954L109.31 197.954L134.25 212.753ZM386.75 212.753L361.81 227.553L361.81 227.553L386.75 212.753ZM71.125 319.13L46.1855 304.331L46.1855 304.331L71.125 319.13ZM449.875 319.13L474.815 304.331L474.815 304.331L449.875 319.13ZM323.625 106.377L348.565 91.5773L348.565 91.5773L323.625 106.377ZM199.271 106.378L174.653 91.0495L199.271 106.378ZM199.281 106.362L174.147 91.895L199.281 106.362ZM496.837 401.428L244.337 570.922L276.663 619.078L529.163 449.585L496.837 401.428ZM276.663 570.922L24.1628 401.428L-8.16281 449.585L244.337 619.078L276.663 570.922ZM32.9395 440.306L96.0645 333.929L46.1855 304.331L-16.9395 410.707L32.9395 440.306ZM424.935 333.929L488.06 440.306L537.94 410.707L474.815 304.331L424.935 333.929ZM159.19 227.553C183.595 186.426 223.658 122.077 223.889 121.706L174.653 91.0495C174.489 91.3127 134.088 156.199 109.31 197.954L159.19 227.553ZM224.415 120.828L285.634 14.4666L235.366 -14.4666L174.147 91.895L224.415 120.828ZM109.31 197.954L46.1855 304.331L96.0645 333.929L159.19 227.553L109.31 197.954ZM474.815 304.331L411.689 197.954L361.81 227.553L424.935 333.929L474.815 304.331ZM348.565 91.5773L285.439 -14.7994L235.561 14.7994L298.686 121.176L348.565 91.5773ZM411.689 197.954L348.565 91.5773L298.686 121.176L361.81 227.553L411.689 197.954ZM223.889 121.706C223.917 121.661 224.027 121.484 224.164 121.256C224.242 121.126 224.336 120.966 224.441 120.783C224.55 120.593 224.641 120.428 224.712 120.299C224.761 120.208 224.818 120.104 224.788 120.159C224.773 120.187 224.735 120.258 224.685 120.348C224.581 120.536 224.489 120.699 224.415 120.828L174.147 91.895C174.069 92.0296 173.975 92.1952 173.87 92.386C173.82 92.4775 173.781 92.5494 173.766 92.5778C173.735 92.6344 173.791 92.5305 173.84 92.4409C173.911 92.3121 174.002 92.1481 174.11 91.9591C174.215 91.7765 174.308 91.6179 174.385 91.4887C174.52 91.2631 174.629 91.0893 174.653 91.0495L223.889 121.706Z" fill="black" mask="url(#path-7-inside-1_869_19)"/>
<defs>
<clipPath id="clip0_869_19">
<rect width="1276" height="323" fill="white" transform="translate(663 136)"/>
</clipPath>
</defs>
</svg>
